<svg width="25" height="28" viewBox="0 0 25 28" fill="none" xmlns="http://www.w3.org/2000/svg">
<path d="M15.2183 18.5694L16.5794 17.2083L12.9822 13.6111V9.13883H11.0378V14.3888L15.2183 18.5694ZM12.01 23.7222C10.6651 23.7222 9.40121 23.467 8.21834 22.9565C7.03547 22.4461 6.00653 21.7534 5.13153 20.8784C4.25653 20.0034 3.56382 18.9745 3.05341 17.7916C2.54299 16.6087 2.28778 15.3449 2.28778 13.9999C2.28778 12.655 2.54299 11.3911 3.05341 10.2083C3.56382 9.02541 4.25653 7.99647 5.13153 7.12147C6.00653 6.24647 7.03547 5.55376 8.21834 5.04335C9.40121 4.53293 10.6651 4.27772 12.01 4.27772C13.3549 4.27772 14.6188 4.53293 15.8017 5.04335C16.9845 5.55376 18.0135 6.24647 18.8885 7.12147C19.7635 7.99647 20.4562 9.02541 20.9666 10.2083C21.477 11.3911 21.7322 12.655 21.7322 13.9999C21.7322 15.3449 21.477 16.6087 20.9666 17.7916C20.4562 18.9745 19.7635 20.0034 18.8885 20.8784C18.0135 21.7534 16.9845 22.4461 15.8017 22.9565C14.6188 23.467 13.3549 23.7222 12.01 23.7222ZM12.01 21.7777C14.1651 21.7777 16.0002 21.0202 17.5152 19.5052C19.0303 17.9901 19.7878 16.155 19.7878 13.9999C19.7878 11.8449 19.0303 10.0098 17.5152 8.49474C16.0002 6.97969 14.1651 6.22217 12.01 6.22217C9.85491 6.22217 8.01984 6.97969 6.50479 8.49474C4.98975 10.0098 4.23223 11.8449 4.23223 13.9999C4.23223 16.155 4.98975 17.9901 6.50479 19.5052C8.01984 21.0202 9.85491 21.7777 12.01 21.7777Z" fill="#1152D4"/>
</svg>
