<svg width="25" height="28" viewBox="0 0 25 28" fill="none" xmlns="http://www.w3.org/2000/svg">
<path d="M8.11771 16.9097H10.0613V13.9943H13.4627V16.4238L16.8641 13.0225L13.4627 9.62111V12.0507H9.08953C8.81418 12.0507 8.58337 12.1438 8.39711 12.3301C8.21084 12.5163 8.11771 12.7471 8.11771 13.0225V16.9097ZM12.005 23.7125C11.762 23.7125 11.5231 23.6639 11.2883 23.5667C11.0534 23.4695 10.8388 23.3237 10.6444 23.1294L2.86989 15.3548C2.67553 15.1605 2.52976 14.9459 2.43258 14.711C2.3354 14.4761 2.2868 14.2372 2.2868 13.9943C2.2868 13.7513 2.3354 13.5124 2.43258 13.2776C2.52976 13.0427 2.67553 12.8281 2.86989 12.6337L10.6444 4.8592C10.8388 4.66484 11.0534 4.51907 11.2883 4.42189C11.5231 4.3247 11.762 4.27611 12.005 4.27611C12.2479 4.27611 12.4868 4.3247 12.7217 4.42189C12.9566 4.51907 13.1712 4.66484 13.3655 4.8592L21.1401 12.6337C21.3344 12.8281 21.4802 13.0427 21.5774 13.2776C21.6746 13.5124 21.7232 13.7513 21.7232 13.9943C21.7232 14.2372 21.6746 14.4761 21.5774 14.711C21.4802 14.9459 21.3344 15.1605 21.1401 15.3548L13.3655 23.1294C13.1712 23.3237 12.9566 23.4695 12.7217 23.5667C12.4868 23.6639 12.2479 23.7125 12.005 23.7125ZM8.11771 17.8816L12.005 21.7688L19.7795 13.9943L12.005 6.21975L4.23044 13.9943L8.11771 17.8816Z" fill="white"/>
</svg>
