<svg width="25" height="28" viewBox="0 0 25 28" fill="none" xmlns="http://www.w3.org/2000/svg">
<path d="M12.005 13.9942C12.005 13.9942 12.1386 13.9942 12.4059 13.9942C12.6731 13.9942 12.9971 13.8039 13.3777 13.4232C13.7583 13.0426 13.9486 12.585 13.9486 12.0505C13.9486 11.516 13.7583 11.0585 13.3777 10.6778C12.9971 10.2972 12.5395 10.1069 12.005 10.1069C11.4705 10.1069 11.0129 10.2972 10.6323 10.6778C10.2517 11.0585 10.0614 11.516 10.0614 12.0505C10.0614 12.585 10.2517 13.0426 10.6323 13.4232C11.0129 13.8039 11.4705 13.9942 12.005 13.9942ZM12.005 21.137C13.981 19.323 15.4469 17.6749 16.4025 16.1929C17.3581 14.7109 17.8359 13.3949 17.8359 12.2449C17.8359 10.4794 17.2731 9.03385 16.1474 7.90816C15.0217 6.78247 13.6409 6.21963 12.005 6.21963C10.3691 6.21963 8.98832 6.78247 7.86263 7.90816C6.73694 9.03385 6.1741 10.4794 6.1741 12.2449C6.1741 13.3949 6.65191 14.7109 7.60753 16.1929C8.56315 17.6749 10.029 19.323 12.005 21.137ZM12.005 23.7123C9.39729 21.4934 7.44961 19.4323 6.16195 17.5292C4.87429 15.626 4.23046 13.8646 4.23046 12.2449C4.23046 9.81535 5.01196 7.87981 6.57497 6.43828C8.13798 4.99676 9.94799 4.27599 12.005 4.27599C14.062 4.27599 15.872 4.99676 17.435 6.43828C18.998 7.87981 19.7795 9.81535 19.7795 12.2449C19.7795 13.8646 19.1357 15.626 17.8481 17.5292C16.5604 19.4323 14.6127 21.4934 12.005 23.7123Z" fill="#1152D4"/>
</svg>
