<svg width="25" height="28" viewBox="0 0 25 28" fill="none" xmlns="http://www.w3.org/2000/svg">
<path d="M4.23223 21.7778C3.6975 21.7778 3.23975 21.5874 2.85896 21.2067C2.47817 20.8259 2.28778 20.3681 2.28778 19.8334V8.16672C2.28778 7.632 2.47817 7.17424 2.85896 6.79346C3.23975 6.41267 3.6975 6.22228 4.23223 6.22228H19.7878C20.3225 6.22228 20.7803 6.41267 21.161 6.79346C21.5418 7.17424 21.7322 7.632 21.7322 8.16672V19.8334C21.7322 20.3681 21.5418 20.8259 21.161 21.2067C20.7803 21.5874 20.3225 21.7778 19.7878 21.7778H4.23223ZM12.01 14.9723L4.23223 10.1112V19.8334H19.7878V10.1112L12.01 14.9723ZM12.01 13.0278L19.7878 8.16672H4.23223L12.01 13.0278Z" fill="#1152D4"/>
</svg>
