<svg width="25" height="28" viewBox="0 0 25 28" fill="none" xmlns="http://www.w3.org/2000/svg">
<path d="M19.7309 22.7405C17.7063 22.7405 15.706 22.2992 13.73 21.4164C11.7539 20.5337 9.95609 19.2825 8.33639 17.6628C6.71669 16.0431 5.46548 14.2452 4.58275 12.2692C3.70001 10.2932 3.25864 8.29285 3.25864 6.26823C3.25864 5.97669 3.35583 5.73373 3.55019 5.53937C3.74455 5.34501 3.98751 5.24783 4.27905 5.24783H8.21491C8.44167 5.24783 8.64413 5.32476 8.8223 5.47863C9.00047 5.6325 9.10575 5.81472 9.13814 6.02528L9.76982 9.42664C9.80222 9.68579 9.79412 9.90445 9.74553 10.0826C9.69693 10.2608 9.60785 10.4147 9.47828 10.5442L7.12162 12.9252C7.44556 13.5245 7.83024 14.1035 8.27565 14.6623C8.72107 15.2211 9.21103 15.7597 9.74553 16.278C10.2476 16.7801 10.774 17.2457 11.3247 17.6749C11.8754 18.1042 12.4585 18.4969 13.074 18.8533L15.3578 16.5695C15.5035 16.4237 15.6939 16.3144 15.9287 16.2415C16.1636 16.1686 16.3944 16.1484 16.6211 16.1808L19.9739 16.861C20.2007 16.9258 20.3869 17.0433 20.5327 17.2133C20.6785 17.3834 20.7514 17.5737 20.7514 17.7843V21.7201C20.7514 22.0117 20.6542 22.2546 20.4598 22.449C20.2654 22.6434 20.0225 22.7405 19.7309 22.7405ZM6.19839 11.0787L7.80189 9.47523L7.38887 7.19146H5.22657C5.30756 7.85554 5.42094 8.51151 5.56671 9.15939C5.71248 9.80727 5.92304 10.447 6.19839 11.0787ZM14.8962 19.7765C15.5278 20.0518 16.1717 20.2705 16.8276 20.4325C17.4836 20.5944 18.1436 20.6997 18.8077 20.7483V18.6103L16.524 18.1487L14.8962 19.7765Z" fill="#1152D4"/>
</svg>
