<svg width="18" height="22" viewBox="0 0 18 22" fill="none" xmlns="http://www.w3.org/2000/svg">
<path d="M4.5 12.5H6.7875L10.5375 8.75C10.65 8.6375 10.7344 8.50937 10.7906 8.36562C10.8469 8.22187 10.875 8.08125 10.875 7.94375C10.875 7.80625 10.8438 7.67188 10.7812 7.54062C10.7188 7.40937 10.6375 7.2875 10.5375 7.175L9.8625 6.4625C9.75 6.35 9.625 6.26562 9.4875 6.20937C9.35 6.15312 9.20625 6.125 9.05625 6.125C8.91875 6.125 8.77813 6.15312 8.63438 6.20937C8.49063 6.26562 8.3625 6.35 8.25 6.4625L4.5 10.2125V12.5ZM5.625 11.375V10.6625L7.51875 8.76875L7.89375 9.10625L8.23125 9.48125L6.3375 11.375H5.625ZM7.89375 9.10625L8.23125 9.48125L7.51875 8.76875L7.89375 9.10625ZM8.38125 12.5H13.5V11H9.88125L8.38125 12.5ZM1.5 18.5V5C1.5 4.5875 1.64687 4.23437 1.94063 3.94062C2.23438 3.64687 2.5875 3.5 3 3.5H15C15.4125 3.5 15.7656 3.64687 16.0594 3.94062C16.3531 4.23437 16.5 4.5875 16.5 5V14C16.5 14.4125 16.3531 14.7656 16.0594 15.0594C15.7656 15.3531 15.4125 15.5 15 15.5H4.5L1.5 18.5ZM3.8625 14H15V5H3V14.8437L3.8625 14Z" fill="#080A0F"/>
</svg>
